<svg width="24" height="24" viewBox="0 0 24 24" fill="none" xmlns="http://www.w3.org/2000/svg">
<path d="M20.16 4.99998C19.1 3.93719 17.6948 3.28852 16.1983 3.17115C14.7019 3.05378 13.2128 3.47545 12 4.35998C10.7277 3.41362 9.14399 2.98449 7.56792 3.15902C5.99185 3.33355 4.54044 4.09876 3.50597 5.30057C2.47151 6.50237 1.93082 8.0515 1.9928 9.636C2.05478 11.2205 2.71482 12.7227 3.84 13.84L10.05 20.06C10.57 20.5718 11.2704 20.8586 12 20.8586C12.7296 20.8586 13.43 20.5718 13.95 20.06L20.16 13.84C21.3276 12.6652 21.9829 11.0763 21.9829 9.41998C21.9829 7.76371 21.3276 6.17472 20.16 4.99998ZM18.75 12.46L12.54 18.67C12.4693 18.7413 12.3852 18.798 12.2925 18.8366C12.1999 18.8753 12.1004 18.8952 12 18.8952C11.8996 18.8952 11.8001 18.8753 11.7075 18.8366C11.6148 18.798 11.5307 18.7413 11.46 18.67L5.25 12.43C4.46576 11.6283 4.02661 10.5514 4.02661 9.42998C4.02661 8.30852 4.46576 7.23164 5.25 6.42998C6.04916 5.64097 7.12697 5.19855 8.25 5.19855C9.37303 5.19855 10.4508 5.64097 11.25 6.42998C11.343 6.52371 11.4536 6.59811 11.5754 6.64887C11.6973 6.69964 11.828 6.72578 11.96 6.72578C12.092 6.72578 12.2227 6.69964 12.3446 6.64887C12.4664 6.59811 12.577 6.52371 12.67 6.42998C13.4692 5.64097 14.547 5.19855 15.67 5.19855C16.793 5.19855 17.8708 5.64097 18.67 6.42998C19.465 7.22113 19.9186 8.29217 19.9335 9.41367C19.9485 10.5352 19.5236 11.6179 18.75 12.43V12.46Z" fill="white"/>
</svg>
