<svg width="27" height="21" viewBox="0 0 27 21" fill="none" xmlns="http://www.w3.org/2000/svg">
<path d="M3.68934 21H22.9571C25.3867 21 26.6465 19.7402 26.6465 17.3444V6.59132C26.6465 4.1955 25.3867 2.94697 22.9571 2.94697H21.6074V1.52973C21.6074 0.573648 21.045 0 20.0889 0H16.9507C15.9834 0 15.4322 0.573648 15.4322 1.52973V2.94697H11.1918V1.52973C11.1918 0.573648 10.6406 0 9.67327 0H6.53508C5.56776 0 5.0166 0.573648 5.0166 1.52973V2.94697H3.68934C1.25978 2.94697 0 4.18425 0 6.59132V17.3444C0 19.7515 1.25978 21 3.68934 21ZM9.68452 12.7102C9.68452 12.5865 9.74076 12.474 9.84199 12.3615L14.4424 6.62507C14.8136 6.15265 15.4435 6.47884 15.2185 7.05249L13.7225 11.0455H16.5345C16.7595 11.0455 16.962 11.2255 16.962 11.4505C16.962 11.5742 16.9057 11.6979 16.7933 11.7991L12.2041 17.5356C11.8329 17.9968 11.203 17.6706 11.4167 17.0969L12.9239 13.1039H10.1119C9.87574 13.1039 9.68452 12.9352 9.68452 12.7102Z" fill="white" fill-opacity="0.6"/>
</svg>
