<svg width="29" height="28" viewBox="0 0 29 28" fill="none" xmlns="http://www.w3.org/2000/svg">
<g clip-path="url(#clip0_5_2183)">
<path d="M6.36018 22.5622C9.03102 22.5622 11.2567 20.5244 11.6606 17.8503H12.9713C13.2681 18.4694 13.8946 18.8993 14.62 18.8993C15.6339 18.8993 16.45 18.0481 16.45 16.9991C16.45 16.5348 16.2852 16.1048 16.0131 15.7695L20.0606 11.2553L20.3738 12.0894C18.7417 13.0438 17.6371 14.8753 17.6371 16.9647C17.6371 20.0601 20.0441 22.5708 23.0199 22.5708C25.9793 22.5708 28.3781 20.0601 28.3781 16.9647C28.3781 13.8693 25.9793 11.3671 23.0199 11.3671C22.5666 11.3671 22.1214 11.4273 21.701 11.5391L19.3682 5.37404C19.2033 4.92693 18.9065 4.73776 18.3872 4.73776H15.9142C15.5103 4.73776 15.1805 5.0817 15.1805 5.50302C15.1805 5.91574 15.5103 6.25968 15.9142 6.25968H18.0987C18.1729 6.25968 18.1894 6.27688 18.2141 6.32847L19.533 9.83661L12.2047 10.92L11.1248 8.8134H12.0316C12.4355 8.8134 12.757 8.47806 12.757 8.05674C12.757 7.63542 12.4273 7.29149 12.0316 7.29149H8.50345C8.10777 7.29149 7.77804 7.63542 7.77804 8.05674C7.77804 8.47806 8.09953 8.8134 8.50345 8.8134H9.55035L10.7044 11.1264L9.51738 12.4333C8.63534 11.7627 7.53898 11.3671 6.36018 11.3671C3.38434 11.3671 0.985535 13.8693 0.985535 16.9647C0.985535 20.0601 3.39259 22.5622 6.36018 22.5622ZM14.62 15.0988C14.5293 15.0988 14.4469 15.1074 14.3562 15.116L12.8807 12.2356L18.0822 11.4703L14.7601 15.0988C14.7107 15.0988 14.6695 15.0988 14.62 15.0988ZM11.7101 16.4316C11.6029 15.2966 11.1743 14.2562 10.5231 13.4221L11.3886 12.4849L13.1115 15.9243C13.0043 16.079 12.9301 16.251 12.8724 16.4316H11.7101ZM6.36018 21.0317C4.20043 21.0317 2.46933 19.2261 2.46933 16.9647C2.46933 14.7205 4.20868 12.9062 6.36018 12.9062C7.15154 12.9062 7.87696 13.147 8.48696 13.5597L6.49208 15.7523C6.45086 15.7437 6.40964 15.7437 6.36018 15.7437C5.70896 15.7437 5.19788 16.2682 5.18963 16.9647C5.18139 17.644 5.70072 18.1857 6.36018 18.1857C6.67343 18.1857 6.96195 18.0567 7.16803 17.8503H10.1604C9.78117 19.6732 8.22318 21.0317 6.36018 21.0317ZM23.0199 21.0317C20.8602 21.0317 19.1209 19.2261 19.1209 16.9647C19.1209 15.5287 19.838 14.2648 20.9179 13.5425L21.9813 16.38C21.8989 16.552 21.8412 16.7497 21.8412 16.9647C21.8329 17.644 22.3522 18.1857 23.0199 18.1857C23.6712 18.1857 24.1823 17.644 24.1823 16.9647C24.1823 16.3886 23.8196 15.9157 23.3085 15.7781L22.2533 12.9836C22.5006 12.932 22.7562 12.9062 23.0199 12.9062C25.1632 12.9062 26.9108 14.7291 26.9108 16.9647C26.9108 19.2175 25.1632 21.0317 23.0199 21.0317ZM7.75331 16.4316L9.49265 14.5485C9.87184 15.0816 10.1356 15.7265 10.2263 16.4316H7.75331ZM14.6282 17.6096C14.2903 17.6096 14.0265 17.3344 14.0265 17.0163C14.0265 16.6723 14.2985 16.38 14.6282 16.38C14.958 16.38 15.2135 16.6637 15.2135 17.0163C15.2135 17.343 14.958 17.6096 14.6282 17.6096Z" fill="white"/>
</g>
<defs>
<clipPath id="clip0_5_2183">
<rect width="28" height="28" fill="white" transform="translate(0.985535)"/>
</clipPath>
</defs>
</svg>
