<svg width="44" height="44" viewBox="0 0 44 44" fill="none" xmlns="http://www.w3.org/2000/svg">
<rect width="44" height="44" rx="10" fill="url(#paint0_linear_1_2459)"/>
<rect x="0.5" y="0.5" width="43" height="43" rx="9.5" stroke="url(#paint1_linear_1_2459)" stroke-opacity="0.6" style="mix-blend-mode:overlay"/>
<path d="M31.725 30.3126L28.015 26.6326C29.4551 24.837 30.1525 22.5578 29.9638 20.2639C29.7751 17.9699 28.7146 15.8353 27.0005 14.2992C25.2863 12.7631 23.0488 11.9421 20.7479 12.005C18.447 12.068 16.2577 13.0101 14.6301 14.6377C13.0025 16.2653 12.0604 18.4546 11.9974 20.7555C11.9345 23.0564 12.7555 25.2939 14.2916 27.0081C15.8277 28.7222 17.9623 29.7827 20.2563 29.9714C22.5503 30.1601 24.8294 29.4627 26.625 28.0226L30.305 31.7026C30.3979 31.7963 30.5085 31.8707 30.6304 31.9214C30.7522 31.9722 30.8829 31.9984 31.015 31.9984C31.147 31.9984 31.2777 31.9722 31.3995 31.9214C31.5214 31.8707 31.632 31.7963 31.725 31.7026C31.9052 31.5161 32.0059 31.2669 32.0059 31.0076C32.0059 30.7482 31.9052 30.499 31.725 30.3126ZM21.015 28.0226C19.6305 28.0226 18.2771 27.612 17.126 26.8428C15.9748 26.0737 15.0776 24.9804 14.5478 23.7013C14.018 22.4223 13.8794 21.0148 14.1495 19.6569C14.4196 18.2991 15.0862 17.0518 16.0652 16.0728C17.0442 15.0938 18.2915 14.4272 19.6493 14.1571C21.0072 13.887 22.4147 14.0256 23.6937 14.5554C24.9728 15.0852 26.0661 15.9824 26.8352 17.1336C27.6044 18.2847 28.015 19.6381 28.015 21.0226C28.015 22.8791 27.2775 24.6595 25.9647 25.9723C24.6519 27.2851 22.8715 28.0226 21.015 28.0226Z" fill="#FAFEFF"/>
<defs>
<linearGradient id="paint0_linear_1_2459" x1="2.2" y1="-2.33764e-07" x2="32.8464" y2="59.4315" gradientUnits="userSpaceOnUse">
<stop stop-color="#34C8E8"/>
<stop offset="1" stop-color="#4E4AF2"/>
</linearGradient>
<linearGradient id="paint1_linear_1_2459" x1="0" y1="0" x2="24.9884" y2="52.9688" gradientUnits="userSpaceOnUse">
<stop stop-color="white"/>
<stop offset="1"/>
</linearGradient>
</defs>
</svg>
