<svg width="29" height="28" viewBox="0 0 29 28" fill="none" xmlns="http://www.w3.org/2000/svg">
<path d="M9.14081 13.6543C9.14081 13.9619 9.25507 14.2256 9.50116 14.4541L16.3391 21.1514C16.5324 21.3447 16.7785 21.4502 17.0685 21.4502C17.6486 21.4502 18.1144 20.9932 18.1144 20.4043C18.1144 20.1143 17.9914 19.8594 17.798 19.6572L11.6369 13.6543L17.798 7.65137C17.9914 7.44922 18.1144 7.18555 18.1144 6.9043C18.1144 6.31543 17.6486 5.8584 17.0685 5.8584C16.7785 5.8584 16.5324 5.96387 16.3391 6.15723L9.50116 12.8457C9.25507 13.083 9.14081 13.3467 9.14081 13.6543Z" fill="white"/>
</svg>
