<svg width="9" height="16" viewBox="0 0 9 16" fill="none" xmlns="http://www.w3.org/2000/svg">
<path d="M8.98553 8C8.97675 7.69238 8.86249 7.42871 8.62518 7.19141L1.78729 0.50293C1.58514 0.30957 1.34784 0.204102 1.0578 0.204102C0.468933 0.204102 0.0119019 0.661133 0.0119019 1.25C0.0119019 1.53125 0.12616 1.79492 0.328308 1.99707L6.48065 8L0.328308 14.0029C0.12616 14.2051 0.0119019 14.46 0.0119019 14.75C0.0119019 15.3389 0.468933 15.7959 1.0578 15.7959C1.33905 15.7959 1.58514 15.6904 1.78729 15.4971L8.62518 8.7998C8.87128 8.57129 8.98553 8.30762 8.98553 8Z" fill="white"/>
</svg>
