<svg width="16" height="20" viewBox="0 0 16 20" fill="none" xmlns="http://www.w3.org/2000/svg">
<path d="M3.65741 19.5229H13.0266C14.9162 19.5229 15.8918 18.5298 15.8918 16.6313V8.76514H9.29999C8.20135 8.76514 7.67401 8.23779 7.67401 7.13916V0.477051H3.65741C1.77655 0.477051 0.792175 1.47021 0.792175 3.37744V16.6313C0.792175 18.5298 1.77655 19.5229 3.65741 19.5229ZM9.46698 7.48193H15.8039C15.7512 7.07764 15.4611 6.69971 15.0041 6.23389L10.1965 1.36475C9.75702 0.916504 9.36151 0.617676 8.95721 0.564941V6.97217C8.966 7.31494 9.133 7.48193 9.46698 7.48193ZM4.93182 12.6587C4.55389 12.6587 4.28143 12.3862 4.28143 12.0347C4.28143 11.6831 4.55389 11.4106 4.93182 11.4106H11.7785C12.1389 11.4106 12.4201 11.6831 12.4201 12.0347C12.4201 12.3862 12.1389 12.6587 11.7785 12.6587H4.93182ZM4.93182 15.9546C4.55389 15.9546 4.28143 15.6821 4.28143 15.3306C4.28143 14.979 4.55389 14.7065 4.93182 14.7065H11.7785C12.1389 14.7065 12.4201 14.979 12.4201 15.3306C12.4201 15.6821 12.1389 15.9546 11.7785 15.9546H4.93182Z" fill="white" fill-opacity="0.6"/>
</svg>
