<svg width="17" height="16" viewBox="0 0 17 16" fill="none" xmlns="http://www.w3.org/2000/svg">
<path d="M15.8918 7H9.89178V1C9.89178 0.734784 9.78643 0.48043 9.59889 0.292893C9.41136 0.105357 9.157 0 8.89178 0C8.62657 0 8.37221 0.105357 8.18468 0.292893C7.99714 0.48043 7.89178 0.734784 7.89178 1V7H1.89178C1.62657 7 1.37221 7.10536 1.18468 7.29289C0.997142 7.48043 0.891785 7.73478 0.891785 8C0.891785 8.26522 0.997142 8.51957 1.18468 8.70711C1.37221 8.89464 1.62657 9 1.89178 9H7.89178V15C7.89178 15.2652 7.99714 15.5196 8.18468 15.7071C8.37221 15.8946 8.62657 16 8.89178 16C9.157 16 9.41136 15.8946 9.59889 15.7071C9.78643 15.5196 9.89178 15.2652 9.89178 15V9H15.8918C16.157 9 16.4114 8.89464 16.5989 8.70711C16.7864 8.51957 16.8918 8.26522 16.8918 8C16.8918 7.73478 16.7864 7.48043 16.5989 7.29289C16.4114 7.10536 16.157 7 15.8918 7Z" fill="white"/>
</svg>
