<svg width="21" height="20" viewBox="0 0 21 20" fill="none" xmlns="http://www.w3.org/2000/svg">
<path d="M19.7309 18.3125L16.0209 14.6325C17.461 12.837 18.1584 10.5578 17.9697 8.26385C17.781 5.96985 16.7206 3.83533 15.0064 2.29919C13.2923 0.763054 11.0547 -0.0579415 8.75382 0.00501891C6.45294 0.0679793 4.26362 1.01011 2.63604 2.63769C1.00846 4.26527 0.0663314 6.45459 0.00337096 8.75547C-0.0595894 11.0564 0.761407 13.2939 2.29754 15.0081C3.83368 16.7222 5.9682 17.7827 8.2622 17.9714C10.5562 18.1601 12.8353 17.4626 14.6309 16.0225L18.3109 19.7025C18.4039 19.7963 18.5145 19.8707 18.6363 19.9214C18.7582 19.9722 18.8889 19.9983 19.0209 19.9983C19.1529 19.9983 19.2836 19.9722 19.4055 19.9214C19.5273 19.8707 19.6379 19.7963 19.7309 19.7025C19.9111 19.5161 20.0119 19.2669 20.0119 19.0075C20.0119 18.7482 19.9111 18.499 19.7309 18.3125ZM9.0209 16.0225C7.63643 16.0225 6.28305 15.612 5.13191 14.8428C3.98076 14.0737 3.08356 12.9804 2.55374 11.7013C2.02393 10.4223 1.88531 9.01478 2.1554 7.65692C2.4255 6.29905 3.09219 5.05177 4.07115 4.0728C5.05012 3.09383 6.2974 2.42715 7.65527 2.15705C9.01314 1.88695 10.4206 2.02558 11.6997 2.55539C12.9788 3.08521 14.072 3.98241 14.8412 5.13356C15.6104 6.2847 16.0209 7.63808 16.0209 9.02255C16.0209 10.8791 15.2834 12.6595 13.9706 13.9723C12.6579 15.2851 10.8774 16.0225 9.0209 16.0225Z" fill="#FAFEFF"/>
</svg>
